# xmcd
#
# Track frame offsets:
#	150
#	14926
#	28284
#	58773
#	81058
#	98841
#	112664
#	125419
#	139987
#	156117
#	167787
#	181591
#	197165
#	208610
#
# Disc length: 2954 seconds
#
# Revision: 1
# Processed by: cddbd v1.5.1PL0 Copyright (c) Steve Scherf et al.
# Submitted via: EasyCDDAExtractor 7.1.0.1
#
DISCID=c00b880e
DTITLE=Various Artist - All That Country Disc 3
DYEAR=1900
DGENRE=Country
TTITLE0=Eric Weissberg and Steve Mandel - Deliverance
TTITLE1=Travis Tritt - Son Of The New South
TTITLE2=Lynyrd Skynyrd - The Last Rebel
TTITLE3=Southern Pacific - Pink Cadillac
TTITLE4=Linda Ronstadt - Blue Bayou
TTITLE5=Dwight Yoakam - Guitars, Cadillacs
TTITLE6=Kevin Welch - I Am No Drifter
TTITLE7=Colin Buchanan - Edge Of The Kimberley
TTITLE8=Nickel Creek - This Side
TTITLE9=Patsy Cline - Walkin' After Midnight
TTITLE10=Rodney Crowell - Careful What You Say
TTITLE11=Randy Travis - High Lonesome
TTITLE12=Sammi Smith - Help Me Make It Through The Night
TTITLE13=John Michael Montgomery - Be My Baby Tonight
EXTD=
EXTT0=
EXTT1=
EXTT2=
EXTT3=
EXTT4=
EXTT5=
EXTT6=
EXTT7=
EXTT8=
EXTT9=
EXTT10=
EXTT11=
EXTT12=
EXTT13=
PLAYORDER=
